<svg width="1067" height="451" viewBox="0 0 1067 451" fill="none" xmlns="http://www.w3.org/2000/svg">
<rect x="0.5" y="0.5" width="1066" height="450" rx="20.5" fill="#F9F9F9" fill-opacity="0.05"/>
<rect width="532" height="71" transform="translate(1 1)" fill="#ECEDF0" fill-opacity="0.05"/>
<path d="M38.1714 34.1682H35.2651C35.212 33.7922 35.1036 33.4582 34.9399 33.1663C34.7762 32.8699 34.5661 32.6177 34.3095 32.4098C34.053 32.2019 33.7566 32.0426 33.4204 31.9321C33.0886 31.8215 32.7281 31.7662 32.3388 31.7662C31.6355 31.7662 31.0228 31.9409 30.5008 32.2904C29.9788 32.6354 29.574 33.1397 29.2865 33.8033C28.999 34.4624 28.8552 35.2631 28.8552 36.2053C28.8552 37.1741 28.999 37.988 29.2865 38.6471C29.5785 39.3063 29.9854 39.8039 30.5074 40.1401C31.0294 40.4763 31.6332 40.6444 32.3189 40.6444C32.7038 40.6444 33.0599 40.5935 33.3872 40.4918C33.719 40.3901 34.0132 40.2419 34.2697 40.0472C34.5263 39.8482 34.7386 39.6071 34.9067 39.324C35.0793 39.0408 35.1987 38.7179 35.2651 38.3552L38.1714 38.3685C38.0962 38.9922 37.9082 39.5938 37.6074 40.1733C37.311 40.7484 36.9106 41.2637 36.4064 41.7194C35.9065 42.1706 35.3093 42.5289 34.6148 42.7943C33.9247 43.0553 33.1439 43.1858 32.2725 43.1858C31.0604 43.1858 29.9766 42.9115 29.0211 42.363C28.07 41.8145 27.318 41.0204 26.765 39.9809C26.2165 38.9413 25.9422 37.6828 25.9422 36.2053C25.9422 34.7234 26.2209 33.4626 26.7783 32.4231C27.3357 31.3835 28.0921 30.5917 29.0476 30.0476C30.0031 29.4991 31.0781 29.2248 32.2725 29.2248C33.0599 29.2248 33.7898 29.3354 34.4622 29.5566C35.139 29.7777 35.7384 30.1007 36.2604 30.5253C36.7824 30.9456 37.207 31.4609 37.5344 32.0714C37.8662 32.6819 38.0785 33.3808 38.1714 34.1682ZM43.0053 29.4106V43H40.1786V29.4106H43.0053ZM45.2697 43V32.8079H48.0964V43H45.2697ZM46.6896 31.4941C46.2694 31.4941 45.9089 31.3548 45.6081 31.0761C45.3117 30.793 45.1635 30.4546 45.1635 30.0609C45.1635 29.6716 45.3117 29.3376 45.6081 29.0589C45.9089 28.7758 46.2694 28.6342 46.6896 28.6342C47.1099 28.6342 47.4682 28.7758 47.7646 29.0589C48.0654 29.3376 48.2158 29.6716 48.2158 30.0609C48.2158 30.4546 48.0654 30.793 47.7646 31.0761C47.4682 31.3548 47.1099 31.4941 46.6896 31.4941ZM55.0055 43.1991C53.9571 43.1991 53.0547 42.9867 52.2983 42.5621C51.5462 42.133 50.9668 41.5269 50.5598 40.7439C50.1528 39.9565 49.9493 39.0254 49.9493 37.9504C49.9493 36.902 50.1528 35.9819 50.5598 35.1901C50.9668 34.3982 51.5396 33.7811 52.2784 33.3388C53.0215 32.8964 53.893 32.6752 54.8927 32.6752C55.5651 32.6752 56.1911 32.7836 56.7706 33.0004C57.3545 33.2127 57.8632 33.5334 58.2967 33.9625C58.7347 34.3916 59.0753 34.9313 59.3186 35.5816C59.5619 36.2274 59.6835 36.9839 59.6835 37.8509V38.6272H51.0773V36.8755H57.0227C57.0227 36.4685 56.9342 36.108 56.7573 35.7939C56.5803 35.4798 56.3348 35.2343 56.0208 35.0574C55.7111 34.876 55.3506 34.7853 54.9392 34.7853C54.5101 34.7853 54.1297 34.8848 53.7979 35.0839C53.4705 35.2785 53.214 35.5417 53.0282 35.8735C52.8424 36.2009 52.7473 36.5658 52.7428 36.9684V38.6339C52.7428 39.1382 52.8357 39.5739 53.0215 39.9411C53.2117 40.3082 53.4794 40.5913 53.8244 40.7904C54.1695 40.9895 54.5787 41.089 55.052 41.089C55.3661 41.089 55.6536 41.0448 55.9146 40.9563C56.1756 40.8678 56.399 40.7351 56.5848 40.5582C56.7706 40.3812 56.9121 40.1644 57.0094 39.9079L59.6238 40.0804C59.4911 40.7086 59.219 41.2571 58.8077 41.726C58.4007 42.1905 57.8743 42.5532 57.2284 42.8142C56.587 43.0708 55.846 43.1991 55.0055 43.1991ZM64.3549 37.1077V43H61.5282V32.8079H64.2222V34.6061H64.3416C64.5672 34.0134 64.9454 33.5445 65.4763 33.1994C66.0071 32.85 66.6508 32.6752 67.4072 32.6752C68.115 32.6752 68.7321 32.8301 69.2585 33.1397C69.7849 33.4494 70.1941 33.8917 70.4861 34.4668C70.778 35.0375 70.924 35.7187 70.924 36.5105V43H68.0973V37.0148C68.1017 36.3911 67.9425 35.9045 67.6195 35.555C67.2966 35.2011 66.852 35.0242 66.2858 35.0242C65.9054 35.0242 65.5692 35.106 65.2772 35.2697C64.9897 35.4334 64.7641 35.6722 64.6004 35.9863C64.4412 36.296 64.3593 36.6698 64.3549 37.1077ZM78.573 32.8079V34.9313H72.4352V32.8079H78.573ZM73.8287 30.3661H76.6554V39.8681C76.6554 40.1291 76.6952 40.3325 76.7748 40.4785C76.8544 40.6201 76.965 40.7196 77.1066 40.7771C77.2526 40.8346 77.4207 40.8634 77.6109 40.8634C77.7436 40.8634 77.8763 40.8523 78.009 40.8302C78.1417 40.8037 78.2435 40.7838 78.3142 40.7705L78.7588 42.8739C78.6173 42.9182 78.4182 42.969 78.1616 43.0265C77.905 43.0885 77.5932 43.1261 77.226 43.1393C76.5448 43.1659 75.9476 43.0752 75.4344 42.8673C74.9257 42.6594 74.5298 42.3365 74.2467 41.8985C73.9636 41.4606 73.8242 40.9076 73.8287 40.2396V30.3661ZM89.4767 32.8079V34.135H84.1949V32.8079H89.4767ZM85.7343 30.3661H87.3003V40.0804C87.3003 40.5228 87.3644 40.8545 87.4927 41.0757C87.6254 41.2925 87.7935 41.4385 87.997 41.5137C88.2049 41.5844 88.4239 41.6198 88.6539 41.6198C88.8265 41.6198 88.968 41.611 89.0786 41.5933C89.1892 41.5712 89.2777 41.5535 89.344 41.5402L89.6625 42.9469C89.5564 42.9867 89.4082 43.0265 89.2179 43.0664C89.0277 43.1106 88.7866 43.1327 88.4947 43.1327C88.0523 43.1327 87.6188 43.0376 87.1941 42.8474C86.7739 42.6572 86.4244 42.3674 86.1457 41.9781C85.8715 41.5889 85.7343 41.0978 85.7343 40.5051V30.3661ZM95.8634 43.2123C94.9432 43.2123 94.1359 42.9934 93.4414 42.5554C92.7513 42.1175 92.2116 41.5048 91.8224 40.7174C91.4375 39.93 91.2451 39.0099 91.2451 37.9571C91.2451 36.8954 91.4375 35.9686 91.8224 35.1768C92.2116 34.385 92.7513 33.7701 93.4414 33.3321C94.1359 32.8942 94.9432 32.6752 95.8634 32.6752C96.7835 32.6752 97.5886 32.8942 98.2787 33.3321C98.9732 33.7701 99.5129 34.385 99.8977 35.1768C100.287 35.9686 100.482 36.8954 100.482 37.9571C100.482 39.0099 100.287 39.93 99.8977 40.7174C99.5129 41.5048 98.9732 42.1175 98.2787 42.5554C97.5886 42.9934 96.7835 43.2123 95.8634 43.2123ZM95.8634 41.8056C96.5623 41.8056 97.1374 41.6265 97.5886 41.2681C98.0398 40.9098 98.3738 40.4387 98.5905 39.8548C98.8073 39.2709 98.9157 38.6383 98.9157 37.9571C98.9157 37.2758 98.8073 36.641 98.5905 36.0527C98.3738 35.4643 98.0398 34.9888 97.5886 34.6261C97.1374 34.2633 96.5623 34.0819 95.8634 34.0819C95.1644 34.0819 94.5893 34.2633 94.1381 34.6261C93.6869 34.9888 93.3529 35.4643 93.1362 36.0527C92.9194 36.641 92.811 37.2758 92.811 37.9571C92.811 38.6383 92.9194 39.2709 93.1362 39.8548C93.3529 40.4387 93.6869 40.9098 94.1381 41.2681C94.5893 41.6265 95.1644 41.8056 95.8634 41.8056ZM118.935 34.1682H116.029C115.975 33.7922 115.867 33.4582 115.703 33.1663C115.54 32.8699 115.33 32.6177 115.073 32.4098C114.816 32.2019 114.52 32.0426 114.184 31.9321C113.852 31.8215 113.492 31.7662 113.102 31.7662C112.399 31.7662 111.786 31.9409 111.264 32.2904C110.742 32.6354 110.337 33.1397 110.05 33.8033C109.762 34.4624 109.619 35.2631 109.619 36.2053C109.619 37.1741 109.762 37.988 110.05 38.6471C110.342 39.3063 110.749 39.8039 111.271 40.1401C111.793 40.4763 112.397 40.6444 113.082 40.6444C113.467 40.6444 113.823 40.5935 114.151 40.4918C114.482 40.3901 114.777 40.2419 115.033 40.0472C115.29 39.8482 115.502 39.6071 115.67 39.324C115.843 39.0408 115.962 38.7179 116.029 38.3552L118.935 38.3685C118.86 38.9922 118.672 39.5938 118.371 40.1733C118.074 40.7484 117.674 41.2637 117.17 41.7194C116.67 42.1706 116.073 42.5289 115.378 42.7943C114.688 43.0553 113.907 43.1858 113.036 43.1858C111.824 43.1858 110.74 42.9115 109.785 42.363C108.833 41.8145 108.081 41.0204 107.528 39.9809C106.98 38.9413 106.706 37.6828 106.706 36.2053C106.706 34.7234 106.984 33.4626 107.542 32.4231C108.099 31.3835 108.856 30.5917 109.811 30.0476C110.767 29.4991 111.842 29.2248 113.036 29.2248C113.823 29.2248 114.553 29.3354 115.226 29.5566C115.902 29.7777 116.502 30.1007 117.024 30.5253C117.546 30.9456 117.97 31.4609 118.298 32.0714C118.63 32.6819 118.842 33.3808 118.935 34.1682ZM123.769 29.4106V43H120.942V29.4106H123.769ZM126.033 43V32.8079H128.86V43H126.033ZM127.453 31.4941C127.033 31.4941 126.672 31.3548 126.372 31.0761C126.075 30.793 125.927 30.4546 125.927 30.0609C125.927 29.6716 126.075 29.3376 126.372 29.0589C126.672 28.7758 127.033 28.6342 127.453 28.6342C127.873 28.6342 128.232 28.7758 128.528 29.0589C128.829 29.3376 128.979 29.6716 128.979 30.0609C128.979 30.4546 128.829 30.793 128.528 31.0761C128.232 31.3548 127.873 31.4941 127.453 31.4941ZM135.769 43.1991C134.721 43.1991 133.818 42.9867 133.062 42.5621C132.31 42.133 131.73 41.5269 131.323 40.7439C130.916 39.9565 130.713 39.0254 130.713 37.9504C130.713 36.902 130.916 35.9819 131.323 35.1901C131.73 34.3982 132.303 33.7811 133.042 33.3388C133.785 32.8964 134.656 32.6752 135.656 32.6752C136.329 32.6752 136.955 32.7836 137.534 33.0004C138.118 33.2127 138.627 33.5334 139.06 33.9625C139.498 34.3916 139.839 34.9313 140.082 35.5816C140.325 36.2274 140.447 36.9839 140.447 37.8509V38.6272H131.841V36.8755H137.786C137.786 36.4685 137.698 36.108 137.521 35.7939C137.344 35.4798 137.098 35.2343 136.784 35.0574C136.475 34.876 136.114 34.7853 135.703 34.7853C135.274 34.7853 134.893 34.8848 134.561 35.0839C134.234 35.2785 133.977 35.5417 133.792 35.8735C133.606 36.2009 133.511 36.5658 133.506 36.9684V38.6339C133.506 39.1382 133.599 39.5739 133.785 39.9411C133.975 40.3082 134.243 40.5913 134.588 40.7904C134.933 40.9895 135.342 41.089 135.815 41.089C136.13 41.089 136.417 41.0448 136.678 40.9563C136.939 40.8678 137.162 40.7351 137.348 40.5582C137.534 40.3812 137.676 40.1644 137.773 39.9079L140.387 40.0804C140.255 40.7086 139.983 41.2571 139.571 41.726C139.164 42.1905 138.638 42.5532 137.992 42.8142C137.35 43.0708 136.609 43.1991 135.769 43.1991ZM145.118 37.1077V43H142.292V32.8079H144.986V34.6061H145.105C145.331 34.0134 145.709 33.5445 146.24 33.1994C146.771 32.85 147.414 32.6752 148.171 32.6752C148.878 32.6752 149.496 32.8301 150.022 33.1397C150.548 33.4494 150.958 33.8917 151.25 34.4668C151.541 35.0375 151.687 35.7187 151.687 36.5105V43H148.861V37.0148C148.865 36.3911 148.706 35.9045 148.383 35.555C148.06 35.2011 147.615 35.0242 147.049 35.0242C146.669 35.0242 146.333 35.106 146.041 35.2697C145.753 35.4334 145.528 35.6722 145.364 35.9863C145.205 36.296 145.123 36.6698 145.118 37.1077ZM159.336 32.8079V34.9313H153.199V32.8079H159.336ZM154.592 30.3661H157.419V39.8681C157.419 40.1291 157.459 40.3325 157.538 40.4785C157.618 40.6201 157.728 40.7196 157.87 40.7771C158.016 40.8346 158.184 40.8634 158.374 40.8634C158.507 40.8634 158.64 40.8523 158.772 40.8302C158.905 40.8037 159.007 40.7838 159.078 40.7705L159.522 42.8739C159.381 42.9182 159.182 42.969 158.925 43.0265C158.669 43.0885 158.357 43.1261 157.989 43.1393C157.308 43.1659 156.711 43.0752 156.198 42.8673C155.689 42.6594 155.293 42.3365 155.01 41.8985C154.727 41.4606 154.588 40.9076 154.592 40.2396V30.3661Z" fill="#666C77"/>
<line x1="1" y1="71.5" x2="533" y2="71.5" stroke="#CFD3DA" stroke-dasharray="16 16"/>
<path d="M26.3404 114V100.411H35.0461V102.474H28.8021V106.164H34.4489V108.227H28.8021V114H26.3404ZM40.9467 114.199C39.9248 114.199 39.0423 113.987 38.2991 113.562C37.5604 113.133 36.9919 112.527 36.5938 111.744C36.1957 110.957 35.9966 110.03 35.9966 108.964C35.9966 107.915 36.1957 106.995 36.5938 106.203C36.9964 105.407 37.5582 104.788 38.2792 104.345C39.0003 103.899 39.8474 103.675 40.8206 103.675C41.4487 103.675 42.0415 103.777 42.5989 103.98C43.1607 104.18 43.6561 104.489 44.0852 104.909C44.5187 105.33 44.8594 105.865 45.1071 106.515C45.3548 107.161 45.4787 107.931 45.4787 108.824V109.561H37.1246V107.942H43.1762C43.1718 107.482 43.0722 107.073 42.8776 106.714C42.6829 106.352 42.4109 106.066 42.0614 105.858C41.7164 105.65 41.3138 105.546 40.8538 105.546C40.3627 105.546 39.9314 105.666 39.5599 105.905C39.1883 106.139 38.8985 106.449 38.6906 106.834C38.4871 107.214 38.3832 107.632 38.3787 108.088V109.501C38.3787 110.094 38.4871 110.603 38.7039 111.027C38.9206 111.448 39.2237 111.77 39.6129 111.996C40.0022 112.217 40.4578 112.328 40.9798 112.328C41.3293 112.328 41.6456 112.279 41.9287 112.182C42.2118 112.08 42.4573 111.932 42.6652 111.737C42.8732 111.543 43.0302 111.302 43.1364 111.014L45.3791 111.266C45.2376 111.859 44.9677 112.377 44.5696 112.819C44.1759 113.257 43.6716 113.597 43.0567 113.841C42.4419 114.08 41.7385 114.199 40.9467 114.199ZM50.4437 114.206C49.7978 114.206 49.2161 114.091 48.6985 113.861C48.1854 113.626 47.7784 113.281 47.4776 112.826C47.1812 112.37 47.033 111.808 47.033 111.14C47.033 110.565 47.1392 110.09 47.3515 109.713C47.5639 109.337 47.8536 109.037 48.2208 108.811C48.5879 108.585 49.0016 108.415 49.4616 108.3C49.9261 108.181 50.4061 108.094 50.9015 108.041C51.4987 107.979 51.9831 107.924 52.3547 107.875C52.7263 107.822 52.9961 107.743 53.1642 107.637C53.3367 107.526 53.423 107.356 53.423 107.126V107.086C53.423 106.586 53.2748 106.199 52.9784 105.925C52.682 105.65 52.2551 105.513 51.6978 105.513C51.1094 105.513 50.6427 105.642 50.2977 105.898C49.9571 106.155 49.727 106.458 49.6076 106.807L47.3648 106.489C47.5418 105.869 47.8337 105.352 48.2407 104.936C48.6477 104.516 49.1453 104.202 49.7337 103.994C50.322 103.781 50.9723 103.675 51.6845 103.675C52.1755 103.675 52.6643 103.733 53.1509 103.848C53.6375 103.963 54.0821 104.153 54.4847 104.418C54.8872 104.679 55.2101 105.035 55.4534 105.487C55.7012 105.938 55.825 106.502 55.825 107.179V114H53.5159V112.6H53.4363C53.2903 112.883 53.0846 113.148 52.8192 113.396C52.5582 113.639 52.2286 113.836 51.8305 113.987C51.4368 114.133 50.9745 114.206 50.4437 114.206ZM51.0674 112.441C51.5496 112.441 51.9676 112.346 52.3215 112.155C52.6754 111.961 52.9474 111.704 53.1377 111.386C53.3323 111.067 53.4296 110.72 53.4296 110.344V109.143C53.3544 109.205 53.2261 109.262 53.0448 109.315C52.8678 109.368 52.6687 109.415 52.4476 109.455C52.2264 109.495 52.0074 109.53 51.7907 109.561C51.5739 109.592 51.3859 109.618 51.2266 109.641C50.8683 109.689 50.5476 109.769 50.2645 109.879C49.9814 109.99 49.758 110.145 49.5943 110.344C49.4306 110.539 49.3488 110.791 49.3488 111.1C49.3488 111.543 49.5103 111.877 49.8332 112.102C50.1561 112.328 50.5675 112.441 51.0674 112.441ZM63.3297 103.808V105.666H57.4706V103.808H63.3297ZM58.9171 101.366H61.3192V110.934C61.3192 111.257 61.3678 111.505 61.4652 111.678C61.5669 111.846 61.6996 111.961 61.8633 112.023C62.027 112.085 62.2083 112.116 62.4074 112.116C62.5578 112.116 62.6949 112.104 62.8188 112.082C62.9471 112.06 63.0444 112.04 63.1107 112.023L63.5155 113.9C63.3872 113.945 63.2036 113.993 62.9648 114.046C62.7303 114.1 62.4428 114.13 62.1022 114.139C61.5005 114.157 60.9586 114.066 60.4765 113.867C59.9943 113.664 59.6116 113.35 59.3285 112.925C59.0498 112.5 58.9127 111.97 58.9171 111.333V101.366ZM71.8347 109.713V103.808H74.2367V114H71.9077V112.189H71.8015C71.5715 112.759 71.1933 113.226 70.6669 113.589C70.1449 113.951 69.5012 114.133 68.736 114.133C68.068 114.133 67.4774 113.985 66.9643 113.688C66.4556 113.387 66.0574 112.952 65.7699 112.381C65.4824 111.806 65.3386 111.111 65.3386 110.297V103.808H67.7406V109.926C67.7406 110.572 67.9176 111.085 68.2715 111.465C68.6254 111.846 69.0898 112.036 69.6649 112.036C70.0188 112.036 70.3616 111.95 70.6934 111.777C71.0252 111.605 71.2972 111.348 71.5096 111.007C71.7263 110.662 71.8347 110.231 71.8347 109.713ZM76.7068 114V103.808H79.0358V105.507H79.142C79.3278 104.918 79.6463 104.465 80.0975 104.146C80.5531 103.823 81.0729 103.662 81.6568 103.662C81.7896 103.662 81.9377 103.669 82.1014 103.682C82.2695 103.691 82.4089 103.706 82.5195 103.728V105.938C82.4177 105.903 82.2562 105.872 82.0351 105.845C81.8183 105.814 81.6082 105.799 81.4047 105.799C80.9668 105.799 80.5731 105.894 80.2236 106.084C79.8785 106.27 79.6065 106.528 79.4074 106.86C79.2084 107.192 79.1088 107.575 79.1088 108.008V114H76.7068ZM88.2077 114.199C87.1858 114.199 86.3033 113.987 85.5602 113.562C84.8214 113.133 84.253 112.527 83.8548 111.744C83.4567 110.957 83.2577 110.03 83.2577 108.964C83.2577 107.915 83.4567 106.995 83.8548 106.203C84.2574 105.407 84.8192 104.788 85.5402 104.345C86.2613 103.899 87.1084 103.675 88.0816 103.675C88.7098 103.675 89.3026 103.777 89.8599 103.98C90.4217 104.18 90.9172 104.489 91.3463 104.909C91.7798 105.33 92.1204 105.865 92.3681 106.515C92.6159 107.161 92.7397 107.931 92.7397 108.824V109.561H84.3857V107.942H90.4372C90.4328 107.482 90.3333 107.073 90.1386 106.714C89.944 106.352 89.6719 106.066 89.3225 105.858C88.9774 105.65 88.5749 105.546 88.1148 105.546C87.6238 105.546 87.1925 105.666 86.8209 105.905C86.4493 106.139 86.1596 106.449 85.9516 106.834C85.7482 107.214 85.6442 107.632 85.6398 108.088V109.501C85.6398 110.094 85.7482 110.603 85.9649 111.027C86.1817 111.448 86.4847 111.77 86.874 111.996C87.2633 112.217 87.7189 112.328 88.2409 112.328C88.5903 112.328 88.9066 112.279 89.1897 112.182C89.4729 112.08 89.7184 111.932 89.9263 111.737C90.1342 111.543 90.2912 111.302 90.3974 111.014L92.6402 111.266C92.4986 111.859 92.2288 112.377 91.8307 112.819C91.437 113.257 90.9327 113.597 90.3178 113.841C89.7029 114.08 88.9995 114.199 88.2077 114.199ZM102.827 106.502L100.638 106.741C100.576 106.52 100.467 106.312 100.312 106.117C100.162 105.922 99.9585 105.765 99.702 105.646C99.4454 105.527 99.1313 105.467 98.7597 105.467C98.2599 105.467 97.8396 105.575 97.499 105.792C97.1628 106.009 96.9969 106.29 97.0013 106.635C96.9969 106.931 97.1053 107.172 97.3265 107.358C97.5521 107.544 97.9237 107.696 98.4412 107.816L100.18 108.187C101.144 108.395 101.861 108.725 102.33 109.176C102.803 109.627 103.042 110.218 103.046 110.948C103.042 111.589 102.854 112.155 102.482 112.646C102.115 113.133 101.604 113.513 100.949 113.788C100.295 114.062 99.5427 114.199 98.6934 114.199C97.4459 114.199 96.4417 113.938 95.6809 113.416C94.92 112.89 94.4666 112.158 94.3206 111.22L96.6629 110.994C96.7691 111.454 96.9947 111.801 97.3397 112.036C97.6848 112.27 98.1338 112.388 98.6867 112.388C99.2574 112.388 99.7152 112.27 100.06 112.036C100.41 111.801 100.584 111.512 100.584 111.167C100.584 110.875 100.472 110.634 100.246 110.443C100.025 110.253 99.6798 110.107 99.2109 110.005L97.4725 109.641C96.4948 109.437 95.7716 109.094 95.3027 108.612C94.8338 108.125 94.6015 107.511 94.6059 106.767C94.6015 106.139 94.7718 105.595 95.1169 105.135C95.4663 104.671 95.9507 104.312 96.57 104.06C97.1938 103.804 97.9126 103.675 98.7266 103.675C99.9209 103.675 100.861 103.93 101.547 104.438C102.237 104.947 102.664 105.635 102.827 106.502Z" fill="#666C77"/>
<rect x="533.25" y="1.25" width="0.5" height="448.5" stroke="#CFD3DA" stroke-width="0.5" stroke-dasharray="16 16"/>
<rect width="532" height="71" transform="translate(534 1)" fill="#ECEDF0" fill-opacity="0.05"/>
<path d="M571.171 34.1682H568.265C568.212 33.7922 568.104 33.4582 567.94 33.1663C567.776 32.8699 567.566 32.6177 567.31 32.4098C567.053 32.2019 566.757 32.0426 566.42 31.9321C566.089 31.8215 565.728 31.7662 565.339 31.7662C564.635 31.7662 564.023 31.9409 563.501 32.2904C562.979 32.6354 562.574 33.1397 562.287 33.8033C561.999 34.4624 561.855 35.2631 561.855 36.2053C561.855 37.1741 561.999 37.988 562.287 38.6471C562.578 39.3063 562.985 39.8039 563.507 40.1401C564.029 40.4763 564.633 40.6444 565.319 40.6444C565.704 40.6444 566.06 40.5935 566.387 40.4918C566.719 40.3901 567.013 40.2419 567.27 40.0472C567.526 39.8482 567.739 39.6071 567.907 39.324C568.079 39.0408 568.199 38.7179 568.265 38.3552L571.171 38.3685C571.096 38.9922 570.908 39.5938 570.607 40.1733C570.311 40.7484 569.911 41.2637 569.406 41.7194C568.906 42.1706 568.309 42.5289 567.615 42.7943C566.925 43.0553 566.144 43.1858 565.272 43.1858C564.06 43.1858 562.977 42.9115 562.021 42.363C561.07 41.8145 560.318 41.0204 559.765 39.9809C559.217 38.9413 558.942 37.6828 558.942 36.2053C558.942 34.7234 559.221 33.4626 559.778 32.4231C560.336 31.3835 561.092 30.5917 562.048 30.0476C563.003 29.4991 564.078 29.2248 565.272 29.2248C566.06 29.2248 566.79 29.3354 567.462 29.5566C568.139 29.7777 568.738 30.1007 569.26 30.5253C569.782 30.9456 570.207 31.4609 570.534 32.0714C570.866 32.6819 571.078 33.3808 571.171 34.1682ZM576.005 29.4106V43H573.179V29.4106H576.005ZM578.27 43V32.8079H581.096V43H578.27ZM579.69 31.4941C579.269 31.4941 578.909 31.3548 578.608 31.0761C578.312 30.793 578.163 30.4546 578.163 30.0609C578.163 29.6716 578.312 29.3376 578.608 29.0589C578.909 28.7758 579.269 28.6342 579.69 28.6342C580.11 28.6342 580.468 28.7758 580.765 29.0589C581.065 29.3376 581.216 29.6716 581.216 30.0609C581.216 30.4546 581.065 30.793 580.765 31.0761C580.468 31.3548 580.11 31.4941 579.69 31.4941ZM588.006 43.1991C586.957 43.1991 586.055 42.9867 585.298 42.5621C584.546 42.133 583.967 41.5269 583.56 40.7439C583.153 39.9565 582.949 39.0254 582.949 37.9504C582.949 36.902 583.153 35.9819 583.56 35.1901C583.967 34.3982 584.54 33.7811 585.278 33.3388C586.022 32.8964 586.893 32.6752 587.893 32.6752C588.565 32.6752 589.191 32.7836 589.771 33.0004C590.354 33.2127 590.863 33.5334 591.297 33.9625C591.735 34.3916 592.075 34.9313 592.319 35.5816C592.562 36.2274 592.684 36.9839 592.684 37.8509V38.6272H584.077V36.8755H590.023C590.023 36.4685 589.934 36.108 589.757 35.7939C589.58 35.4798 589.335 35.2343 589.021 35.0574C588.711 34.876 588.351 34.7853 587.939 34.7853C587.51 34.7853 587.13 34.8848 586.798 35.0839C586.471 35.2785 586.214 35.5417 586.028 35.8735C585.842 36.2009 585.747 36.5658 585.743 36.9684V38.6339C585.743 39.1382 585.836 39.5739 586.022 39.9411C586.212 40.3082 586.479 40.5913 586.824 40.7904C587.169 40.9895 587.579 41.089 588.052 41.089C588.366 41.089 588.654 41.0448 588.915 40.9563C589.176 40.8678 589.399 40.7351 589.585 40.5582C589.771 40.3812 589.912 40.1644 590.009 39.9079L592.624 40.0804C592.491 40.7086 592.219 41.2571 591.808 41.726C591.401 42.1905 590.874 42.5532 590.228 42.8142C589.587 43.0708 588.846 43.1991 588.006 43.1991ZM597.355 37.1077V43H594.528V32.8079H597.222V34.6061H597.342C597.567 34.0134 597.945 33.5445 598.476 33.1994C599.007 32.85 599.651 32.6752 600.407 32.6752C601.115 32.6752 601.732 32.8301 602.258 33.1397C602.785 33.4494 603.194 33.8917 603.486 34.4668C603.778 35.0375 603.924 35.7187 603.924 36.5105V43H601.097V37.0148C601.102 36.3911 600.942 35.9045 600.62 35.555C600.297 35.2011 599.852 35.0242 599.286 35.0242C598.905 35.0242 598.569 35.106 598.277 35.2697C597.99 35.4334 597.764 35.6722 597.6 35.9863C597.441 36.296 597.359 36.6698 597.355 37.1077ZM611.573 32.8079V34.9313H605.435V32.8079H611.573ZM606.829 30.3661H609.655V39.8681C609.655 40.1291 609.695 40.3325 609.775 40.4785C609.854 40.6201 609.965 40.7196 610.107 40.7771C610.253 40.8346 610.421 40.8634 610.611 40.8634C610.744 40.8634 610.876 40.8523 611.009 40.8302C611.142 40.8037 611.243 40.7838 611.314 40.7705L611.759 42.8739C611.617 42.9182 611.418 42.969 611.162 43.0265C610.905 43.0885 610.593 43.1261 610.226 43.1393C609.545 43.1659 608.948 43.0752 608.434 42.8673C607.926 42.6594 607.53 42.3365 607.247 41.8985C606.964 41.4606 606.824 40.9076 606.829 40.2396V30.3661ZM622.477 32.8079V34.135H617.195V32.8079H622.477ZM618.734 30.3661H620.3V40.0804C620.3 40.5228 620.364 40.8545 620.493 41.0757C620.625 41.2925 620.794 41.4385 620.997 41.5137C621.205 41.5844 621.424 41.6198 621.654 41.6198C621.826 41.6198 621.968 41.611 622.079 41.5933C622.189 41.5712 622.278 41.5535 622.344 41.5402L622.663 42.9469C622.556 42.9867 622.408 43.0265 622.218 43.0664C622.028 43.1106 621.787 43.1327 621.495 43.1327C621.052 43.1327 620.619 43.0376 620.194 42.8474C619.774 42.6572 619.424 42.3674 619.146 41.9781C618.871 41.5889 618.734 41.0978 618.734 40.5051V30.3661ZM628.863 43.2123C627.943 43.2123 627.136 42.9934 626.441 42.5554C625.751 42.1175 625.212 41.5048 624.822 40.7174C624.438 39.93 624.245 39.0099 624.245 37.9571C624.245 36.8954 624.438 35.9686 624.822 35.1768C625.212 34.385 625.751 33.7701 626.441 33.3321C627.136 32.8942 627.943 32.6752 628.863 32.6752C629.783 32.6752 630.589 32.8942 631.279 33.3321C631.973 33.7701 632.513 34.385 632.898 35.1768C633.287 35.9686 633.482 36.8954 633.482 37.9571C633.482 39.0099 633.287 39.93 632.898 40.7174C632.513 41.5048 631.973 42.1175 631.279 42.5554C630.589 42.9934 629.783 43.2123 628.863 43.2123ZM628.863 41.8056C629.562 41.8056 630.137 41.6265 630.589 41.2681C631.04 40.9098 631.374 40.4387 631.591 39.8548C631.807 39.2709 631.916 38.6383 631.916 37.9571C631.916 37.2758 631.807 36.641 631.591 36.0527C631.374 35.4643 631.04 34.9888 630.589 34.6261C630.137 34.2633 629.562 34.0819 628.863 34.0819C628.164 34.0819 627.589 34.2633 627.138 34.6261C626.687 34.9888 626.353 35.4643 626.136 36.0527C625.919 36.641 625.811 37.2758 625.811 37.9571C625.811 38.6383 625.919 39.2709 626.136 39.8548C626.353 40.4387 626.687 40.9098 627.138 41.2681C627.589 41.6265 628.164 41.8056 628.863 41.8056ZM644.762 43H639.945V29.4106H644.802C646.169 29.4106 647.345 29.6826 648.332 30.2267C649.318 30.7664 650.077 31.5428 650.608 32.5558C651.143 33.5688 651.411 34.7809 651.411 36.192C651.411 37.6076 651.143 38.8241 650.608 39.8415C650.077 40.859 649.314 41.6397 648.319 42.1838C647.328 42.7279 646.142 43 644.762 43ZM642.818 40.5382H644.642C645.492 40.5382 646.206 40.3878 646.786 40.087C647.37 39.7818 647.808 39.3107 648.1 38.6737C648.396 38.0323 648.544 37.205 648.544 36.192C648.544 35.1879 648.396 34.3673 648.1 33.7303C647.808 33.0933 647.372 32.6244 646.792 32.3235C646.213 32.0227 645.498 31.8723 644.649 31.8723H642.818V40.5382ZM653.486 43V32.8079H656.226V34.5862H656.332C656.518 33.9537 656.83 33.4759 657.268 33.153C657.706 32.8256 658.21 32.662 658.781 32.662C658.923 32.662 659.075 32.6708 659.239 32.6885C659.402 32.7062 659.546 32.7305 659.67 32.7615V35.2697C659.537 35.2299 659.354 35.1945 659.119 35.1635C658.885 35.1326 658.67 35.1171 658.476 35.1171C658.06 35.1171 657.688 35.2078 657.361 35.3891C657.038 35.5661 656.781 35.8138 656.591 36.1323C656.405 36.4508 656.313 36.818 656.313 37.2338V43H653.486ZM661.132 43V32.8079H663.958V43H661.132ZM662.552 31.4941C662.131 31.4941 661.771 31.3548 661.47 31.0761C661.174 30.793 661.025 30.4546 661.025 30.0609C661.025 29.6716 661.174 29.3376 661.47 29.0589C661.771 28.7758 662.131 28.6342 662.552 28.6342C662.972 28.6342 663.33 28.7758 663.627 29.0589C663.927 29.3376 664.078 29.6716 664.078 30.0609C664.078 30.4546 663.927 30.793 663.627 31.0761C663.33 31.3548 662.972 31.4941 662.552 31.4941ZM675.725 32.8079L672.161 43H668.976L665.413 32.8079H668.399L670.516 40.1003H670.622L672.732 32.8079H675.725ZM681.488 43.1991C680.439 43.1991 679.537 42.9867 678.78 42.5621C678.028 42.133 677.449 41.5269 677.042 40.7439C676.635 39.9565 676.431 39.0254 676.431 37.9504C676.431 36.902 676.635 35.9819 677.042 35.1901C677.449 34.3982 678.022 33.7811 678.76 33.3388C679.504 32.8964 680.375 32.6752 681.375 32.6752C682.047 32.6752 682.673 32.7836 683.253 33.0004C683.836 33.2127 684.345 33.5334 684.779 33.9625C685.217 34.3916 685.557 34.9313 685.801 35.5816C686.044 36.2274 686.166 36.9839 686.166 37.8509V38.6272H677.559V36.8755H683.505C683.505 36.4685 683.416 36.108 683.239 35.7939C683.062 35.4798 682.817 35.2343 682.503 35.0574C682.193 34.876 681.833 34.7853 681.421 34.7853C680.992 34.7853 680.612 34.8848 680.28 35.0839C679.953 35.2785 679.696 35.5417 679.51 35.8735C679.324 36.2009 679.229 36.5658 679.225 36.9684V38.6339C679.225 39.1382 679.318 39.5739 679.504 39.9411C679.694 40.3082 679.961 40.5913 680.306 40.7904C680.651 40.9895 681.061 41.089 681.534 41.089C681.848 41.089 682.136 41.0448 682.397 40.9563C682.658 40.8678 682.881 40.7351 683.067 40.5582C683.253 40.3812 683.394 40.1644 683.491 39.9079L686.106 40.0804C685.973 40.7086 685.701 41.2571 685.29 41.726C684.883 42.1905 684.356 42.5532 683.71 42.8142C683.069 43.0708 682.328 43.1991 681.488 43.1991ZM688.01 43V32.8079H690.751V34.5862H690.857C691.043 33.9537 691.354 33.4759 691.792 33.153C692.23 32.8256 692.735 32.662 693.305 32.662C693.447 32.662 693.599 32.6708 693.763 32.6885C693.927 32.7062 694.071 32.7305 694.194 32.7615V35.2697C694.062 35.2299 693.878 35.1945 693.644 35.1635C693.409 35.1326 693.195 35.1171 693 35.1171C692.584 35.1171 692.213 35.2078 691.885 35.3891C691.562 35.5661 691.306 35.8138 691.116 36.1323C690.93 36.4508 690.837 36.818 690.837 37.2338V43H688.01Z" fill="#666C77"/>
<line x1="534" y1="71.5" x2="1066" y2="71.5" stroke="#CFD3DA" stroke-dasharray="16 16"/>
<path d="M559.34 114V100.411H568.046V102.474H561.802V106.164H567.449V108.227H561.802V114H559.34ZM573.947 114.199C572.925 114.199 572.042 113.987 571.299 113.562C570.56 113.133 569.992 112.527 569.594 111.744C569.196 110.957 568.997 110.03 568.997 108.964C568.997 107.915 569.196 106.995 569.594 106.203C569.996 105.407 570.558 104.788 571.279 104.345C572 103.899 572.847 103.675 573.821 103.675C574.449 103.675 575.042 103.777 575.599 103.98C576.161 104.18 576.656 104.489 577.085 104.909C577.519 105.33 577.859 105.865 578.107 106.515C578.355 107.161 578.479 107.931 578.479 108.824V109.561H570.125V107.942H576.176C576.172 107.482 576.072 107.073 575.878 106.714C575.683 106.352 575.411 106.066 575.061 105.858C574.716 105.65 574.314 105.546 573.854 105.546C573.363 105.546 572.931 105.666 572.56 105.905C572.188 106.139 571.899 106.449 571.691 106.834C571.487 107.214 571.383 107.632 571.379 108.088V109.501C571.379 110.094 571.487 110.603 571.704 111.027C571.921 111.448 572.224 111.77 572.613 111.996C573.002 112.217 573.458 112.328 573.98 112.328C574.329 112.328 574.646 112.279 574.929 112.182C575.212 112.08 575.457 111.932 575.665 111.737C575.873 111.543 576.03 111.302 576.136 111.014L578.379 111.266C578.238 111.859 577.968 112.377 577.57 112.819C577.176 113.257 576.672 113.597 576.057 113.841C575.442 114.08 574.738 114.199 573.947 114.199ZM583.444 114.206C582.798 114.206 582.216 114.091 581.699 113.861C581.185 113.626 580.778 113.281 580.478 112.826C580.181 112.37 580.033 111.808 580.033 111.14C580.033 110.565 580.139 110.09 580.352 109.713C580.564 109.337 580.854 109.037 581.221 108.811C581.588 108.585 582.002 108.415 582.462 108.3C582.926 108.181 583.406 108.094 583.902 108.041C584.499 107.979 584.983 107.924 585.355 107.875C585.726 107.822 585.996 107.743 586.164 107.637C586.337 107.526 586.423 107.356 586.423 107.126V107.086C586.423 106.586 586.275 106.199 585.978 105.925C585.682 105.65 585.255 105.513 584.698 105.513C584.109 105.513 583.643 105.642 583.298 105.898C582.957 106.155 582.727 106.458 582.608 106.807L580.365 106.489C580.542 105.869 580.834 105.352 581.241 104.936C581.648 104.516 582.145 104.202 582.734 103.994C583.322 103.781 583.972 103.675 584.684 103.675C585.176 103.675 585.664 103.733 586.151 103.848C586.638 103.963 587.082 104.153 587.485 104.418C587.887 104.679 588.21 105.035 588.453 105.487C588.701 105.938 588.825 106.502 588.825 107.179V114H586.516V112.6H586.436C586.29 112.883 586.085 113.148 585.819 113.396C585.558 113.639 585.229 113.836 584.83 113.987C584.437 114.133 583.974 114.206 583.444 114.206ZM584.067 112.441C584.55 112.441 584.968 112.346 585.321 112.155C585.675 111.961 585.947 111.704 586.138 111.386C586.332 111.067 586.43 110.72 586.43 110.344V109.143C586.354 109.205 586.226 109.262 586.045 109.315C585.868 109.368 585.669 109.415 585.448 109.455C585.226 109.495 585.007 109.53 584.791 109.561C584.574 109.592 584.386 109.618 584.227 109.641C583.868 109.689 583.548 109.769 583.265 109.879C582.981 109.99 582.758 110.145 582.594 110.344C582.431 110.539 582.349 110.791 582.349 111.1C582.349 111.543 582.51 111.877 582.833 112.102C583.156 112.328 583.568 112.441 584.067 112.441ZM596.33 103.808V105.666H590.471V103.808H596.33ZM591.917 101.366H594.319V110.934C594.319 111.257 594.368 111.505 594.465 111.678C594.567 111.846 594.7 111.961 594.863 112.023C595.027 112.085 595.208 112.116 595.407 112.116C595.558 112.116 595.695 112.104 595.819 112.082C595.947 112.06 596.044 112.04 596.111 112.023L596.516 113.9C596.387 113.945 596.204 113.993 595.965 114.046C595.73 114.1 595.443 114.13 595.102 114.139C594.501 114.157 593.959 114.066 593.476 113.867C592.994 113.664 592.612 113.35 592.329 112.925C592.05 112.5 591.913 111.97 591.917 111.333V101.366ZM604.835 109.713V103.808H607.237V114H604.908V112.189H604.802C604.572 112.759 604.193 113.226 603.667 113.589C603.145 113.951 602.501 114.133 601.736 114.133C601.068 114.133 600.477 113.985 599.964 113.688C599.456 113.387 599.057 112.952 598.77 112.381C598.482 111.806 598.339 111.111 598.339 110.297V103.808H600.741V109.926C600.741 110.572 600.918 111.085 601.271 111.465C601.625 111.846 602.09 112.036 602.665 112.036C603.019 112.036 603.362 111.95 603.693 111.777C604.025 111.605 604.297 111.348 604.51 111.007C604.726 110.662 604.835 110.231 604.835 109.713ZM609.707 114V103.808H612.036V105.507H612.142C612.328 104.918 612.646 104.465 613.098 104.146C613.553 103.823 614.073 103.662 614.657 103.662C614.79 103.662 614.938 103.669 615.101 103.682C615.27 103.691 615.409 103.706 615.519 103.728V105.938C615.418 105.903 615.256 105.872 615.035 105.845C614.818 105.814 614.608 105.799 614.405 105.799C613.967 105.799 613.573 105.894 613.224 106.084C612.879 106.27 612.606 106.528 612.407 106.86C612.208 107.192 612.109 107.575 612.109 108.008V114H609.707ZM621.208 114.199C620.186 114.199 619.303 113.987 618.56 113.562C617.821 113.133 617.253 112.527 616.855 111.744C616.457 110.957 616.258 110.03 616.258 108.964C616.258 107.915 616.457 106.995 616.855 106.203C617.257 105.407 617.819 104.788 618.54 104.345C619.261 103.899 620.108 103.675 621.082 103.675C621.71 103.675 622.303 103.777 622.86 103.98C623.422 104.18 623.917 104.489 624.346 104.909C624.78 105.33 625.12 105.865 625.368 106.515C625.616 107.161 625.74 107.931 625.74 108.824V109.561H617.386V107.942H623.437C623.433 107.482 623.333 107.073 623.139 106.714C622.944 106.352 622.672 106.066 622.322 105.858C621.977 105.65 621.575 105.546 621.115 105.546C620.624 105.546 620.192 105.666 619.821 105.905C619.449 106.139 619.16 106.449 618.952 106.834C618.748 107.214 618.644 107.632 618.64 108.088V109.501C618.64 110.094 618.748 110.603 618.965 111.027C619.182 111.448 619.485 111.77 619.874 111.996C620.263 112.217 620.719 112.328 621.241 112.328C621.59 112.328 621.907 112.279 622.19 112.182C622.473 112.08 622.718 111.932 622.926 111.737C623.134 111.543 623.291 111.302 623.397 111.014L625.64 111.266C625.499 111.859 625.229 112.377 624.831 112.819C624.437 113.257 623.933 113.597 623.318 113.841C622.703 114.08 622 114.199 621.208 114.199ZM635.827 106.502L633.638 106.741C633.576 106.52 633.467 106.312 633.312 106.117C633.162 105.922 632.959 105.765 632.702 105.646C632.445 105.527 632.131 105.467 631.76 105.467C631.26 105.467 630.84 105.575 630.499 105.792C630.163 106.009 629.997 106.29 630.001 106.635C629.997 106.931 630.105 107.172 630.326 107.358C630.552 107.544 630.924 107.696 631.441 107.816L633.18 108.187C634.144 108.395 634.861 108.725 635.33 109.176C635.803 109.627 636.042 110.218 636.046 110.948C636.042 111.589 635.854 112.155 635.482 112.646C635.115 113.133 634.604 113.513 633.949 113.788C633.295 114.062 632.543 114.199 631.693 114.199C630.446 114.199 629.442 113.938 628.681 113.416C627.92 112.89 627.467 112.158 627.321 111.22L629.663 110.994C629.769 111.454 629.995 111.801 630.34 112.036C630.685 112.27 631.134 112.388 631.687 112.388C632.257 112.388 632.715 112.27 633.06 112.036C633.41 111.801 633.584 111.512 633.584 111.167C633.584 110.875 633.472 110.634 633.246 110.443C633.025 110.253 632.68 110.107 632.211 110.005L630.472 109.641C629.495 109.437 628.772 109.094 628.303 108.612C627.834 108.125 627.602 107.511 627.606 106.767C627.602 106.139 627.772 105.595 628.117 105.135C628.466 104.671 628.951 104.312 629.57 104.06C630.194 103.804 630.913 103.675 631.727 103.675C632.921 103.675 633.861 103.93 634.547 104.438C635.237 104.947 635.664 105.635 635.827 106.502Z" fill="#666C77"/>
<rect x="0.5" y="0.5" width="1066" height="450" rx="20.5" stroke="#CFD3DA" stroke-dasharray="14 14"/>
</svg>
