<svg width="1226" height="1167" viewBox="0 0 1226 1167" fill="none" xmlns="http://www.w3.org/2000/svg">
<path d="M6.77273 542.818L13.5866 563.426H13.8551L20.6562 542.818H25.8722L16.642 569H10.7869L1.5696 542.818H6.77273ZM32.7276 569.396C31.4833 569.396 30.3626 569.175 29.3654 568.732C28.3768 568.28 27.5927 567.615 27.0131 566.737C26.4421 565.859 26.1566 564.777 26.1566 563.49C26.1566 562.382 26.3612 561.466 26.7702 560.741C27.1793 560.017 27.7376 559.438 28.445 559.003C29.1523 558.568 29.9492 558.24 30.8356 558.018C31.7305 557.788 32.6552 557.622 33.6097 557.52C34.7603 557.401 35.6935 557.294 36.4094 557.2C37.1254 557.098 37.6452 556.945 37.9691 556.74C38.3015 556.527 38.4677 556.199 38.4677 555.756V555.679C38.4677 554.716 38.1822 553.97 37.6112 553.442C37.0401 552.913 36.2177 552.649 35.1438 552.649C34.0103 552.649 33.1112 552.896 32.4464 553.391C31.7901 553.885 31.3469 554.469 31.1168 555.142L26.7958 554.528C27.1367 553.335 27.6992 552.338 28.4833 551.537C29.2674 550.727 30.2262 550.122 31.3597 549.722C32.4933 549.312 33.7461 549.108 35.1183 549.108C36.0643 549.108 37.006 549.219 37.9435 549.44C38.881 549.662 39.7376 550.028 40.5131 550.54C41.2887 551.043 41.9109 551.729 42.3796 552.598C42.8569 553.467 43.0955 554.554 43.0955 555.858V569H38.6467V566.303H38.4933C38.212 566.848 37.8157 567.359 37.3043 567.837C36.8015 568.305 36.1665 568.685 35.3995 568.974C34.641 569.256 33.7504 569.396 32.7276 569.396ZM33.9293 565.996C34.8583 565.996 35.6637 565.812 36.3455 565.446C37.0273 565.071 37.5515 564.577 37.918 563.963C38.293 563.349 38.4805 562.68 38.4805 561.956V559.642C38.3356 559.761 38.0884 559.872 37.739 559.974C37.3981 560.077 37.0146 560.166 36.5884 560.243C36.1623 560.32 35.7404 560.388 35.3228 560.447C34.9052 560.507 34.543 560.558 34.2362 560.601C33.5458 560.695 32.9279 560.848 32.3825 561.061C31.837 561.274 31.4066 561.572 31.0913 561.956C30.7759 562.331 30.6183 562.817 30.6183 563.413C30.6183 564.266 30.9293 564.909 31.5515 565.344C32.1737 565.778 32.9663 565.996 33.9293 565.996ZM52.3768 542.818V569H47.7489V542.818H52.3768ZM69.6513 560.741V549.364H74.2791V569H69.7919V565.51H69.5874C69.1442 566.609 68.4155 567.509 67.4013 568.207C66.3956 568.906 65.1555 569.256 63.6811 569.256C62.3942 569.256 61.2564 568.97 60.2678 568.399C59.2876 567.82 58.5206 566.98 57.9666 565.881C57.4126 564.773 57.1357 563.435 57.1357 561.866V549.364H61.7635V561.151C61.7635 562.395 62.1044 563.384 62.7862 564.116C63.468 564.849 64.3629 565.216 65.4709 565.216C66.1527 565.216 66.8132 565.05 67.4524 564.717C68.0916 564.385 68.6158 563.891 69.0249 563.234C69.4425 562.57 69.6513 561.739 69.6513 560.741ZM87.7312 569.384C85.7624 569.384 84.0621 568.974 82.6303 568.156C81.207 567.33 80.1119 566.162 79.3448 564.653C78.5778 563.136 78.1942 561.351 78.1942 559.297C78.1942 557.277 78.5778 555.504 79.3448 553.979C80.1204 552.445 81.2028 551.251 82.592 550.399C83.9812 549.538 85.6133 549.108 87.4883 549.108C88.6985 549.108 89.8406 549.304 90.9144 549.696C91.9968 550.08 92.9514 550.676 93.7781 551.486C94.6133 552.295 95.2695 553.327 95.7468 554.58C96.2241 555.824 96.4627 557.307 96.4627 559.028V560.447H80.3675V557.328H92.0266C92.0181 556.442 91.8264 555.653 91.4514 554.963C91.0764 554.264 90.5522 553.714 89.8789 553.314C89.2141 552.913 88.4386 552.713 87.5522 552.713C86.6062 552.713 85.7752 552.943 85.0593 553.403C84.3434 553.855 83.7852 554.452 83.3846 555.193C82.9925 555.926 82.7923 556.732 82.7837 557.609V560.332C82.7837 561.474 82.9925 562.455 83.4102 563.273C83.8278 564.082 84.4116 564.705 85.1616 565.139C85.9116 565.565 86.7894 565.778 87.7951 565.778C88.4684 565.778 89.0778 565.685 89.6232 565.497C90.1687 565.301 90.6417 565.016 91.0423 564.641C91.4428 564.266 91.7454 563.801 91.9499 563.247L96.271 563.733C95.9982 564.875 95.4783 565.872 94.7113 566.724C93.9528 567.568 92.9812 568.224 91.7965 568.693C90.6119 569.153 89.2567 569.384 87.7312 569.384Z" fill="#666C77"/>
<path d="M364.139 823.818V850H359.92L347.584 832.166H347.366V850H342.623V823.818H346.868L359.192 841.665H359.422V823.818H364.139ZM377.668 850.384C375.75 850.384 374.088 849.962 372.682 849.118C371.276 848.274 370.185 847.094 369.409 845.577C368.642 844.06 368.259 842.287 368.259 840.259C368.259 838.23 368.642 836.453 369.409 834.928C370.185 833.402 371.276 832.217 372.682 831.374C374.088 830.53 375.75 830.108 377.668 830.108C379.585 830.108 381.247 830.53 382.654 831.374C384.06 832.217 385.146 833.402 385.914 834.928C386.689 836.453 387.077 838.23 387.077 840.259C387.077 842.287 386.689 844.06 385.914 845.577C385.146 847.094 384.06 848.274 382.654 849.118C381.247 849.962 379.585 850.384 377.668 850.384ZM377.693 846.676C378.733 846.676 379.602 846.391 380.301 845.82C381 845.24 381.52 844.464 381.861 843.493C382.21 842.521 382.385 841.439 382.385 840.246C382.385 839.044 382.21 837.957 381.861 836.986C381.52 836.006 381 835.226 380.301 834.646C379.602 834.067 378.733 833.777 377.693 833.777C376.628 833.777 375.742 834.067 375.034 834.646C374.335 835.226 373.811 836.006 373.462 836.986C373.121 837.957 372.95 839.044 372.95 840.246C372.95 841.439 373.121 842.521 373.462 843.493C373.811 844.464 374.335 845.24 375.034 845.82C375.742 846.391 376.628 846.676 377.693 846.676ZM408.474 857.773C406.812 857.773 405.385 857.547 404.192 857.095C402.998 856.652 402.04 856.055 401.315 855.305C400.591 854.555 400.088 853.724 399.807 852.812L403.974 851.803C404.162 852.186 404.434 852.565 404.792 852.94C405.15 853.324 405.632 853.639 406.237 853.886C406.851 854.142 407.622 854.27 408.551 854.27C409.863 854.27 410.95 853.95 411.811 853.311C412.672 852.68 413.102 851.641 413.102 850.192V846.472H412.872C412.633 846.949 412.284 847.439 411.824 847.942C411.372 848.445 410.771 848.866 410.021 849.207C409.28 849.548 408.346 849.719 407.221 849.719C405.713 849.719 404.345 849.365 403.118 848.658C401.899 847.942 400.927 846.876 400.203 845.462C399.487 844.038 399.129 842.257 399.129 840.118C399.129 837.962 399.487 836.142 400.203 834.659C400.927 833.168 401.903 832.038 403.131 831.271C404.358 830.496 405.726 830.108 407.234 830.108C408.385 830.108 409.331 830.304 410.072 830.696C410.822 831.08 411.419 831.544 411.862 832.089C412.305 832.626 412.642 833.134 412.872 833.611H413.128V830.364H417.692V850.32C417.692 851.999 417.291 853.388 416.49 854.487C415.689 855.587 414.594 856.409 413.204 856.955C411.815 857.5 410.238 857.773 408.474 857.773ZM408.513 846.088C409.493 846.088 410.328 845.849 411.018 845.372C411.709 844.895 412.233 844.209 412.591 843.314C412.949 842.419 413.128 841.345 413.128 840.092C413.128 838.857 412.949 837.774 412.591 836.845C412.241 835.916 411.721 835.196 411.031 834.685C410.349 834.165 409.51 833.905 408.513 833.905C407.481 833.905 406.621 834.173 405.93 834.71C405.24 835.247 404.72 835.984 404.371 836.922C404.021 837.851 403.846 838.908 403.846 840.092C403.846 841.294 404.021 842.347 404.371 843.25C404.729 844.145 405.253 844.844 405.943 845.347C406.642 845.841 407.498 846.088 408.513 846.088ZM431 850.384C429.082 850.384 427.42 849.962 426.014 849.118C424.608 848.274 423.517 847.094 422.741 845.577C421.974 844.06 421.591 842.287 421.591 840.259C421.591 838.23 421.974 836.453 422.741 834.928C423.517 833.402 424.608 832.217 426.014 831.374C427.42 830.53 429.082 830.108 431 830.108C432.917 830.108 434.579 830.53 435.986 831.374C437.392 832.217 438.479 833.402 439.246 834.928C440.021 836.453 440.409 838.23 440.409 840.259C440.409 842.287 440.021 844.06 439.246 845.577C438.479 847.094 437.392 848.274 435.986 849.118C434.579 849.962 432.917 850.384 431 850.384ZM431.025 846.676C432.065 846.676 432.934 846.391 433.633 845.82C434.332 845.24 434.852 844.464 435.193 843.493C435.542 842.521 435.717 841.439 435.717 840.246C435.717 839.044 435.542 837.957 435.193 836.986C434.852 836.006 434.332 835.226 433.633 834.646C432.934 834.067 432.065 833.777 431.025 833.777C429.96 833.777 429.074 834.067 428.366 834.646C427.667 835.226 427.143 836.006 426.794 836.986C426.453 837.957 426.282 839.044 426.282 840.246C426.282 841.439 426.453 842.521 426.794 843.493C427.143 844.464 427.667 845.24 428.366 845.82C429.074 846.391 429.96 846.676 431.025 846.676Z" fill="#ADB3BF"/>
<path d="M880.053 831.016C879.934 829.899 879.431 829.03 878.545 828.408C877.667 827.786 876.525 827.474 875.119 827.474C874.13 827.474 873.282 827.624 872.575 827.922C871.867 828.22 871.326 828.625 870.951 829.136C870.576 829.648 870.384 830.232 870.376 830.888C870.376 831.433 870.499 831.906 870.746 832.307C871.002 832.707 871.347 833.048 871.782 833.33C872.217 833.602 872.698 833.832 873.227 834.02C873.755 834.207 874.288 834.365 874.825 834.493L877.279 835.107C878.268 835.337 879.218 835.648 880.13 836.04C881.05 836.432 881.873 836.926 882.597 837.523C883.33 838.119 883.91 838.839 884.336 839.683C884.762 840.527 884.975 841.516 884.975 842.649C884.975 844.183 884.583 845.534 883.799 846.702C883.015 847.861 881.881 848.768 880.398 849.425C878.924 850.072 877.138 850.396 875.042 850.396C873.005 850.396 871.237 850.081 869.737 849.45C868.245 848.82 867.077 847.899 866.234 846.689C865.398 845.479 864.947 844.004 864.879 842.266H869.545C869.613 843.178 869.894 843.936 870.388 844.541C870.883 845.146 871.526 845.598 872.319 845.896C873.12 846.195 874.015 846.344 875.004 846.344C876.035 846.344 876.938 846.19 877.714 845.884C878.498 845.568 879.112 845.134 879.555 844.58C879.998 844.017 880.224 843.361 880.232 842.611C880.224 841.929 880.023 841.366 879.631 840.923C879.239 840.472 878.69 840.097 877.982 839.798C877.283 839.491 876.465 839.219 875.528 838.98L872.549 838.213C870.393 837.659 868.688 836.82 867.435 835.695C866.191 834.561 865.569 833.057 865.569 831.182C865.569 829.639 865.987 828.288 866.822 827.129C867.665 825.97 868.812 825.071 870.261 824.432C871.71 823.784 873.35 823.46 875.183 823.46C877.04 823.46 878.668 823.784 880.066 824.432C881.472 825.071 882.576 825.962 883.377 827.104C884.178 828.237 884.592 829.541 884.617 831.016H880.053ZM888.999 850V830.364H893.422V833.7H893.652C894.061 832.575 894.739 831.697 895.685 831.067C896.631 830.428 897.76 830.108 899.073 830.108C900.402 830.108 901.523 830.432 902.435 831.08C903.355 831.719 904.003 832.592 904.378 833.7H904.583C905.017 832.609 905.75 831.74 906.782 831.092C907.821 830.436 909.053 830.108 910.476 830.108C912.283 830.108 913.757 830.679 914.9 831.821C916.042 832.963 916.613 834.629 916.613 836.82V850H911.972V837.536C911.972 836.317 911.648 835.426 911 834.864C910.353 834.293 909.56 834.007 908.623 834.007C907.506 834.007 906.632 834.357 906.002 835.055C905.38 835.746 905.069 836.645 905.069 837.753V850H900.53V837.344C900.53 836.33 900.223 835.52 899.61 834.915C899.005 834.31 898.212 834.007 897.232 834.007C896.567 834.007 895.962 834.178 895.417 834.518C894.871 834.851 894.436 835.324 894.113 835.938C893.789 836.543 893.627 837.25 893.627 838.06V850H888.999ZM926.958 850.396C925.714 850.396 924.593 850.175 923.596 849.732C922.607 849.28 921.823 848.615 921.244 847.737C920.673 846.859 920.387 845.777 920.387 844.49C920.387 843.382 920.592 842.466 921.001 841.741C921.41 841.017 921.968 840.438 922.675 840.003C923.383 839.568 924.18 839.24 925.066 839.018C925.961 838.788 926.886 838.622 927.84 838.52C928.991 838.401 929.924 838.294 930.64 838.2C931.356 838.098 931.876 837.945 932.2 837.74C932.532 837.527 932.698 837.199 932.698 836.756V836.679C932.698 835.716 932.413 834.97 931.842 834.442C931.271 833.913 930.448 833.649 929.374 833.649C928.241 833.649 927.342 833.896 926.677 834.391C926.021 834.885 925.577 835.469 925.347 836.142L921.026 835.528C921.367 834.335 921.93 833.338 922.714 832.537C923.498 831.727 924.457 831.122 925.59 830.722C926.724 830.312 927.977 830.108 929.349 830.108C930.295 830.108 931.237 830.219 932.174 830.44C933.112 830.662 933.968 831.028 934.744 831.54C935.519 832.043 936.141 832.729 936.61 833.598C937.087 834.467 937.326 835.554 937.326 836.858V850H932.877V847.303H932.724C932.442 847.848 932.046 848.359 931.535 848.837C931.032 849.305 930.397 849.685 929.63 849.974C928.871 850.256 927.981 850.396 926.958 850.396ZM928.16 846.996C929.089 846.996 929.894 846.812 930.576 846.446C931.258 846.071 931.782 845.577 932.148 844.963C932.523 844.349 932.711 843.68 932.711 842.956V840.642C932.566 840.761 932.319 840.872 931.969 840.974C931.629 841.077 931.245 841.166 930.819 841.243C930.393 841.32 929.971 841.388 929.553 841.447C929.136 841.507 928.773 841.558 928.467 841.601C927.776 841.695 927.158 841.848 926.613 842.061C926.067 842.274 925.637 842.572 925.322 842.956C925.006 843.331 924.849 843.817 924.849 844.413C924.849 845.266 925.16 845.909 925.782 846.344C926.404 846.778 927.197 846.996 928.16 846.996ZM946.607 823.818V850H941.979V823.818H946.607ZM955.994 823.818V850H951.366V823.818H955.994ZM973.735 850L968.187 830.364H972.904L976.356 844.17H976.535L980.063 830.364H984.729L988.258 844.094H988.45L991.85 830.364H996.58L991.019 850H986.2L982.518 836.73H982.249L978.567 850H973.735ZM999.811 850V830.364H1004.44V850H999.811ZM1002.14 827.577C1001.41 827.577 1000.77 827.334 1000.25 826.848C999.718 826.354 999.453 825.761 999.453 825.071C999.453 824.372 999.718 823.78 1000.25 823.294C1000.77 822.8 1001.41 822.553 1002.14 822.553C1002.88 822.553 1003.51 822.8 1004.03 823.294C1004.56 823.78 1004.82 824.372 1004.82 825.071C1004.82 825.761 1004.56 826.354 1004.03 826.848C1003.51 827.334 1002.88 827.577 1002.14 827.577ZM1013.83 838.494V850H1009.2V830.364H1013.62V833.7H1013.85C1014.3 832.601 1015.02 831.727 1016.01 831.08C1017.01 830.432 1018.24 830.108 1019.71 830.108C1021.06 830.108 1022.24 830.398 1023.25 830.977C1024.26 831.557 1025.05 832.396 1025.6 833.496C1026.16 834.595 1026.44 835.929 1026.43 837.497V850H1021.8V838.213C1021.8 836.901 1021.46 835.874 1020.78 835.132C1020.11 834.391 1019.17 834.02 1017.98 834.02C1017.17 834.02 1016.45 834.199 1015.82 834.557C1015.2 834.906 1014.71 835.413 1014.35 836.078C1014 836.743 1013.83 837.548 1013.83 838.494Z" fill="#ADB3BF"/>
<path d="M309.007 294H303.945L313.162 267.818H319.017L328.247 294H323.185L316.192 273.188H315.987L309.007 294ZM309.173 283.734H322.98V287.544H309.173V283.734ZM346.695 279.554L342.476 280.014C342.357 279.588 342.148 279.188 341.849 278.812C341.56 278.438 341.168 278.135 340.673 277.905C340.179 277.675 339.574 277.56 338.858 277.56C337.895 277.56 337.085 277.768 336.429 278.186C335.781 278.604 335.462 279.145 335.47 279.81C335.462 280.381 335.67 280.845 336.097 281.203C336.531 281.561 337.247 281.855 338.244 282.085L341.594 282.801C343.452 283.202 344.832 283.837 345.736 284.706C346.648 285.575 347.108 286.713 347.116 288.119C347.108 289.355 346.746 290.446 346.03 291.392C345.322 292.33 344.338 293.062 343.077 293.591C341.815 294.119 340.366 294.384 338.73 294.384C336.327 294.384 334.392 293.881 332.926 292.875C331.46 291.861 330.587 290.45 330.305 288.643L334.818 288.209C335.023 289.095 335.457 289.764 336.122 290.216C336.787 290.668 337.652 290.893 338.717 290.893C339.817 290.893 340.699 290.668 341.364 290.216C342.037 289.764 342.374 289.206 342.374 288.541C342.374 287.979 342.156 287.514 341.722 287.148C341.295 286.781 340.631 286.5 339.727 286.304L336.378 285.601C334.494 285.209 333.101 284.548 332.197 283.619C331.294 282.682 330.847 281.497 330.855 280.065C330.847 278.855 331.175 277.807 331.839 276.92C332.513 276.026 333.446 275.335 334.639 274.849C335.841 274.355 337.226 274.108 338.794 274.108C341.095 274.108 342.906 274.598 344.227 275.578C345.557 276.558 346.379 277.884 346.695 279.554ZM350.933 301.364V274.364H355.484V277.611H355.752C355.991 277.134 356.327 276.626 356.762 276.089C357.197 275.544 357.785 275.08 358.526 274.696C359.268 274.304 360.214 274.108 361.364 274.108C362.881 274.108 364.249 274.496 365.468 275.271C366.695 276.038 367.667 277.176 368.383 278.685C369.107 280.185 369.469 282.026 369.469 284.207C369.469 286.364 369.116 288.196 368.408 289.705C367.701 291.213 366.738 292.364 365.519 293.156C364.3 293.949 362.92 294.345 361.377 294.345C360.252 294.345 359.319 294.158 358.577 293.783C357.836 293.408 357.239 292.956 356.788 292.428C356.344 291.891 355.999 291.384 355.752 290.906H355.56V301.364H350.933ZM355.471 284.182C355.471 285.452 355.65 286.564 356.008 287.518C356.374 288.473 356.898 289.219 357.58 289.756C358.271 290.284 359.106 290.548 360.086 290.548C361.109 290.548 361.965 290.276 362.656 289.73C363.346 289.176 363.866 288.422 364.215 287.467C364.573 286.504 364.752 285.409 364.752 284.182C364.752 282.963 364.577 281.881 364.228 280.935C363.879 279.989 363.359 279.247 362.668 278.71C361.978 278.173 361.117 277.905 360.086 277.905C359.097 277.905 358.258 278.165 357.567 278.685C356.877 279.205 356.353 279.933 355.995 280.871C355.646 281.808 355.471 282.912 355.471 284.182ZM373.433 294V274.364H378.06V294H373.433ZM375.759 271.577C375.026 271.577 374.396 271.334 373.867 270.848C373.339 270.354 373.075 269.761 373.075 269.071C373.075 268.372 373.339 267.78 373.867 267.294C374.396 266.8 375.026 266.553 375.759 266.553C376.501 266.553 377.131 266.8 377.651 267.294C378.18 267.78 378.444 268.372 378.444 269.071C378.444 269.761 378.18 270.354 377.651 270.848C377.131 271.334 376.501 271.577 375.759 271.577ZM382.819 294V274.364H387.306V277.636H387.511C387.869 276.503 388.483 275.629 389.352 275.016C390.23 274.393 391.231 274.082 392.356 274.082C392.612 274.082 392.897 274.095 393.213 274.121C393.537 274.138 393.805 274.168 394.018 274.21V278.467C393.822 278.399 393.511 278.339 393.085 278.288C392.667 278.229 392.262 278.199 391.87 278.199C391.027 278.199 390.268 278.382 389.595 278.749C388.93 279.107 388.406 279.605 388.022 280.244C387.639 280.884 387.447 281.621 387.447 282.456V294H382.819ZM402.392 294.396C401.147 294.396 400.027 294.175 399.029 293.732C398.041 293.28 397.257 292.615 396.677 291.737C396.106 290.859 395.821 289.777 395.821 288.49C395.821 287.382 396.025 286.466 396.434 285.741C396.843 285.017 397.402 284.438 398.109 284.003C398.816 283.568 399.613 283.24 400.5 283.018C401.395 282.788 402.319 282.622 403.274 282.52C404.424 282.401 405.358 282.294 406.074 282.2C406.789 282.098 407.309 281.945 407.633 281.74C407.966 281.527 408.132 281.199 408.132 280.756V280.679C408.132 279.716 407.846 278.97 407.275 278.442C406.704 277.913 405.882 277.649 404.808 277.649C403.674 277.649 402.775 277.896 402.11 278.391C401.454 278.885 401.011 279.469 400.781 280.142L396.46 279.528C396.801 278.335 397.363 277.338 398.147 276.537C398.931 275.727 399.89 275.122 401.024 274.722C402.157 274.312 403.41 274.108 404.782 274.108C405.728 274.108 406.67 274.219 407.608 274.44C408.545 274.662 409.402 275.028 410.177 275.54C410.953 276.043 411.575 276.729 412.044 277.598C412.521 278.467 412.76 279.554 412.76 280.858V294H408.311V291.303H408.157C407.876 291.848 407.48 292.359 406.968 292.837C406.466 293.305 405.831 293.685 405.064 293.974C404.305 294.256 403.414 294.396 402.392 294.396ZM403.593 290.996C404.522 290.996 405.328 290.812 406.01 290.446C406.691 290.071 407.216 289.577 407.582 288.963C407.957 288.349 408.145 287.68 408.145 286.956V284.642C408 284.761 407.752 284.872 407.403 284.974C407.062 285.077 406.679 285.166 406.252 285.243C405.826 285.32 405.404 285.388 404.987 285.447C404.569 285.507 404.207 285.558 403.9 285.601C403.21 285.695 402.592 285.848 402.047 286.061C401.501 286.274 401.071 286.572 400.755 286.956C400.44 287.331 400.282 287.817 400.282 288.413C400.282 289.266 400.593 289.909 401.216 290.344C401.838 290.778 402.63 290.996 403.593 290.996ZM427.218 274.364V277.943H415.93V274.364H427.218ZM418.717 269.659H423.345V288.094C423.345 288.716 423.439 289.193 423.626 289.526C423.822 289.849 424.078 290.071 424.393 290.19C424.708 290.31 425.058 290.369 425.441 290.369C425.731 290.369 425.995 290.348 426.234 290.305C426.481 290.263 426.669 290.224 426.797 290.19L427.576 293.808C427.329 293.893 426.975 293.987 426.515 294.089C426.064 294.192 425.51 294.251 424.853 294.268C423.694 294.303 422.65 294.128 421.721 293.744C420.792 293.352 420.055 292.747 419.51 291.929C418.973 291.111 418.708 290.088 418.717 288.861V269.659ZM431.089 294V274.364H435.717V294H431.089ZM433.415 271.577C432.683 271.577 432.052 271.334 431.523 270.848C430.995 270.354 430.731 269.761 430.731 269.071C430.731 268.372 430.995 267.78 431.523 267.294C432.052 266.8 432.683 266.553 433.415 266.553C434.157 266.553 434.788 266.8 435.308 267.294C435.836 267.78 436.1 268.372 436.1 269.071C436.1 269.761 435.836 270.354 435.308 270.848C434.788 271.334 434.157 271.577 433.415 271.577ZM449.041 294.384C447.123 294.384 445.461 293.962 444.055 293.118C442.649 292.274 441.558 291.094 440.782 289.577C440.015 288.06 439.632 286.287 439.632 284.259C439.632 282.23 440.015 280.453 440.782 278.928C441.558 277.402 442.649 276.217 444.055 275.374C445.461 274.53 447.123 274.108 449.041 274.108C450.958 274.108 452.62 274.53 454.027 275.374C455.433 276.217 456.52 277.402 457.287 278.928C458.062 280.453 458.45 282.23 458.45 284.259C458.45 286.287 458.062 288.06 457.287 289.577C456.52 291.094 455.433 292.274 454.027 293.118C452.62 293.962 450.958 294.384 449.041 294.384ZM449.066 290.676C450.106 290.676 450.975 290.391 451.674 289.82C452.373 289.24 452.893 288.464 453.234 287.493C453.583 286.521 453.758 285.439 453.758 284.246C453.758 283.044 453.583 281.957 453.234 280.986C452.893 280.006 452.373 279.226 451.674 278.646C450.975 278.067 450.106 277.777 449.066 277.777C448.001 277.777 447.115 278.067 446.407 278.646C445.708 279.226 445.184 280.006 444.835 280.986C444.494 281.957 444.324 283.044 444.324 284.246C444.324 285.439 444.494 286.521 444.835 287.493C445.184 288.464 445.708 289.24 446.407 289.82C447.115 290.391 448.001 290.676 449.066 290.676ZM467.006 282.494V294H462.378V274.364H466.801V277.7H467.031C467.483 276.601 468.203 275.727 469.192 275.08C470.189 274.432 471.42 274.108 472.886 274.108C474.241 274.108 475.422 274.398 476.428 274.977C477.442 275.557 478.226 276.396 478.78 277.496C479.342 278.595 479.619 279.929 479.611 281.497V294H474.983V282.213C474.983 280.901 474.642 279.874 473.96 279.132C473.287 278.391 472.354 278.02 471.161 278.02C470.351 278.02 469.631 278.199 469 278.557C468.378 278.906 467.888 279.413 467.53 280.078C467.18 280.743 467.006 281.548 467.006 282.494Z" fill="#ADB3BF"/>
<path d="M886.618 294V267.818H896.64C898.532 267.818 900.105 268.116 901.358 268.713C902.619 269.301 903.561 270.107 904.183 271.129C904.814 272.152 905.129 273.311 905.129 274.607C905.129 275.672 904.924 276.584 904.515 277.342C904.106 278.092 903.556 278.702 902.866 279.17C902.176 279.639 901.404 279.976 900.552 280.18V280.436C901.481 280.487 902.372 280.773 903.224 281.293C904.085 281.804 904.788 282.528 905.333 283.466C905.879 284.403 906.152 285.537 906.152 286.866C906.152 288.222 905.824 289.44 905.167 290.523C904.511 291.597 903.522 292.445 902.201 293.067C900.88 293.689 899.218 294 897.216 294H886.618ZM891.36 290.037H896.461C898.183 290.037 899.423 289.709 900.181 289.053C900.949 288.388 901.332 287.536 901.332 286.496C901.332 285.72 901.14 285.021 900.757 284.399C900.373 283.768 899.828 283.274 899.12 282.916C898.413 282.55 897.569 282.366 896.589 282.366H891.36V290.037ZM891.36 278.953H896.052C896.87 278.953 897.608 278.804 898.264 278.506C898.92 278.199 899.436 277.768 899.811 277.214C900.194 276.652 900.386 275.987 900.386 275.22C900.386 274.206 900.028 273.371 899.312 272.714C898.605 272.058 897.552 271.73 896.154 271.73H891.36V278.953ZM910.073 294V274.364H914.701V294H910.073ZM912.4 271.577C911.667 271.577 911.036 271.334 910.508 270.848C909.979 270.354 909.715 269.761 909.715 269.071C909.715 268.372 909.979 267.78 910.508 267.294C911.036 266.8 911.667 266.553 912.4 266.553C913.141 266.553 913.772 266.8 914.292 267.294C914.82 267.78 915.085 268.372 915.085 269.071C915.085 269.761 914.82 270.354 914.292 270.848C913.772 271.334 913.141 271.577 912.4 271.577ZM928 301.773C926.338 301.773 924.91 301.547 923.717 301.095C922.524 300.652 921.565 300.055 920.841 299.305C920.116 298.555 919.613 297.724 919.332 296.812L923.5 295.803C923.687 296.186 923.96 296.565 924.318 296.94C924.676 297.324 925.157 297.639 925.762 297.886C926.376 298.142 927.147 298.27 928.076 298.27C929.389 298.27 930.475 297.95 931.336 297.311C932.197 296.68 932.627 295.641 932.627 294.192V290.472H932.397C932.159 290.949 931.809 291.439 931.349 291.942C930.897 292.445 930.297 292.866 929.547 293.207C928.805 293.548 927.872 293.719 926.747 293.719C925.238 293.719 923.87 293.365 922.643 292.658C921.424 291.942 920.453 290.876 919.728 289.462C919.012 288.038 918.654 286.257 918.654 284.118C918.654 281.962 919.012 280.142 919.728 278.659C920.453 277.168 921.429 276.038 922.656 275.271C923.883 274.496 925.251 274.108 926.76 274.108C927.91 274.108 928.856 274.304 929.598 274.696C930.348 275.08 930.944 275.544 931.387 276.089C931.831 276.626 932.167 277.134 932.397 277.611H932.653V274.364H937.217V294.32C937.217 295.999 936.816 297.388 936.015 298.487C935.214 299.587 934.119 300.409 932.73 300.955C931.341 301.5 929.764 301.773 928 301.773ZM928.038 290.088C929.018 290.088 929.853 289.849 930.544 289.372C931.234 288.895 931.758 288.209 932.116 287.314C932.474 286.419 932.653 285.345 932.653 284.092C932.653 282.857 932.474 281.774 932.116 280.845C931.767 279.916 931.247 279.196 930.556 278.685C929.875 278.165 929.035 277.905 928.038 277.905C927.007 277.905 926.146 278.173 925.456 278.71C924.765 279.247 924.245 279.984 923.896 280.922C923.547 281.851 923.372 282.908 923.372 284.092C923.372 285.294 923.547 286.347 923.896 287.25C924.254 288.145 924.778 288.844 925.468 289.347C926.167 289.841 927.024 290.088 928.038 290.088ZM954.942 294L949.394 274.364H954.111L957.563 288.17H957.742L961.27 274.364H965.936L969.465 288.094H969.657L973.057 274.364H977.787L972.226 294H967.407L963.725 280.73H963.456L959.775 294H954.942ZM981.018 294V274.364H985.646V294H981.018ZM983.345 271.577C982.612 271.577 981.982 271.334 981.453 270.848C980.925 270.354 980.661 269.761 980.661 269.071C980.661 268.372 980.925 267.78 981.453 267.294C981.982 266.8 982.612 266.553 983.345 266.553C984.087 266.553 984.717 266.8 985.237 267.294C985.766 267.78 986.03 268.372 986.03 269.071C986.03 269.761 985.766 270.354 985.237 270.848C984.717 271.334 984.087 271.577 983.345 271.577ZM995.033 282.494V294H990.405V274.364H994.828V277.7H995.059C995.51 276.601 996.23 275.727 997.219 275.08C998.216 274.432 999.448 274.108 1000.91 274.108C1002.27 274.108 1003.45 274.398 1004.45 274.977C1005.47 275.557 1006.25 276.396 1006.81 277.496C1007.37 278.595 1007.65 279.929 1007.64 281.497V294H1003.01V282.213C1003.01 280.901 1002.67 279.874 1001.99 279.132C1001.31 278.391 1000.38 278.02 999.188 278.02C998.378 278.02 997.658 278.199 997.027 278.557C996.405 278.906 995.915 279.413 995.557 280.078C995.208 280.743 995.033 281.548 995.033 282.494Z" fill="#ADB3BF"/>
<path d="M586.051 1158V1131.82H602.824V1135.79H590.794V1142.9H601.673V1146.88H590.794V1158H586.051ZM614.192 1158.38C612.223 1158.38 610.523 1157.97 609.091 1157.16C607.668 1156.33 606.573 1155.16 605.806 1153.65C605.039 1152.14 604.655 1150.35 604.655 1148.3C604.655 1146.28 605.039 1144.5 605.806 1142.98C606.581 1141.44 607.664 1140.25 609.053 1139.4C610.442 1138.54 612.074 1138.11 613.949 1138.11C615.159 1138.11 616.301 1138.3 617.375 1138.7C618.458 1139.08 619.412 1139.68 620.239 1140.49C621.074 1141.3 621.73 1142.33 622.208 1143.58C622.685 1144.82 622.924 1146.31 622.924 1148.03V1149.45H606.828V1146.33H618.488C618.479 1145.44 618.287 1144.65 617.912 1143.96C617.537 1143.26 617.013 1142.71 616.34 1142.31C615.675 1141.91 614.9 1141.71 614.013 1141.71C613.067 1141.71 612.236 1141.94 611.52 1142.4C610.804 1142.86 610.246 1143.45 609.846 1144.19C609.453 1144.93 609.253 1145.73 609.245 1146.61V1149.33C609.245 1150.47 609.453 1151.45 609.871 1152.27C610.289 1153.08 610.873 1153.7 611.623 1154.14C612.373 1154.57 613.25 1154.78 614.256 1154.78C614.929 1154.78 615.539 1154.68 616.084 1154.5C616.63 1154.3 617.103 1154.02 617.503 1153.64C617.904 1153.27 618.206 1152.8 618.411 1152.25L622.732 1152.73C622.459 1153.87 621.939 1154.87 621.172 1155.72C620.414 1156.57 619.442 1157.22 618.257 1157.69C617.073 1158.15 615.718 1158.38 614.192 1158.38ZM632.489 1158.4C631.245 1158.4 630.124 1158.17 629.127 1157.73C628.138 1157.28 627.354 1156.62 626.775 1155.74C626.204 1154.86 625.918 1153.78 625.918 1152.49C625.918 1151.38 626.123 1150.47 626.532 1149.74C626.941 1149.02 627.499 1148.44 628.207 1148C628.914 1147.57 629.711 1147.24 630.597 1147.02C631.492 1146.79 632.417 1146.62 633.371 1146.52C634.522 1146.4 635.455 1146.29 636.171 1146.2C636.887 1146.1 637.407 1145.94 637.731 1145.74C638.063 1145.53 638.229 1145.2 638.229 1144.76V1144.68C638.229 1143.72 637.944 1142.97 637.373 1142.44C636.802 1141.91 635.979 1141.65 634.906 1141.65C633.772 1141.65 632.873 1141.9 632.208 1142.39C631.552 1142.88 631.109 1143.47 630.879 1144.14L626.558 1143.53C626.898 1142.34 627.461 1141.34 628.245 1140.54C629.029 1139.73 629.988 1139.12 631.121 1138.72C632.255 1138.31 633.508 1138.11 634.88 1138.11C635.826 1138.11 636.768 1138.22 637.705 1138.44C638.643 1138.66 639.499 1139.03 640.275 1139.54C641.05 1140.04 641.673 1140.73 642.141 1141.6C642.619 1142.47 642.857 1143.55 642.857 1144.86V1158H638.408V1155.3H638.255C637.974 1155.85 637.577 1156.36 637.066 1156.84C636.563 1157.31 635.928 1157.68 635.161 1157.97C634.403 1158.26 633.512 1158.4 632.489 1158.4ZM633.691 1155C634.62 1155 635.425 1154.81 636.107 1154.45C636.789 1154.07 637.313 1153.58 637.68 1152.96C638.055 1152.35 638.242 1151.68 638.242 1150.96V1148.64C638.097 1148.76 637.85 1148.87 637.501 1148.97C637.16 1149.08 636.776 1149.17 636.35 1149.24C635.924 1149.32 635.502 1149.39 635.085 1149.45C634.667 1149.51 634.305 1149.56 633.998 1149.6C633.308 1149.69 632.69 1149.85 632.144 1150.06C631.599 1150.27 631.168 1150.57 630.853 1150.96C630.538 1151.33 630.38 1151.82 630.38 1152.41C630.38 1153.27 630.691 1153.91 631.313 1154.34C631.935 1154.78 632.728 1155 633.691 1155ZM663.031 1143.55L658.812 1144.01C658.692 1143.59 658.484 1143.19 658.185 1142.81C657.896 1142.44 657.504 1142.13 657.009 1141.9C656.515 1141.67 655.91 1141.56 655.194 1141.56C654.231 1141.56 653.421 1141.77 652.765 1142.19C652.117 1142.6 651.798 1143.14 651.806 1143.81C651.798 1144.38 652.006 1144.85 652.433 1145.2C652.867 1145.56 653.583 1145.86 654.58 1146.09L657.93 1146.8C659.788 1147.2 661.168 1147.84 662.072 1148.71C662.984 1149.58 663.444 1150.71 663.452 1152.12C663.444 1153.36 663.082 1154.45 662.366 1155.39C661.658 1156.33 660.674 1157.06 659.413 1157.59C658.151 1158.12 656.702 1158.38 655.066 1158.38C652.663 1158.38 650.728 1157.88 649.262 1156.88C647.796 1155.86 646.923 1154.45 646.641 1152.64L651.154 1152.21C651.359 1153.1 651.793 1153.76 652.458 1154.22C653.123 1154.67 653.988 1154.89 655.053 1154.89C656.153 1154.89 657.035 1154.67 657.7 1154.22C658.373 1153.76 658.71 1153.21 658.71 1152.54C658.71 1151.98 658.492 1151.51 658.058 1151.15C657.631 1150.78 656.967 1150.5 656.063 1150.3L652.714 1149.6C650.83 1149.21 649.437 1148.55 648.533 1147.62C647.63 1146.68 647.183 1145.5 647.191 1144.07C647.183 1142.86 647.511 1141.81 648.175 1140.92C648.849 1140.03 649.782 1139.34 650.975 1138.85C652.177 1138.36 653.562 1138.11 655.13 1138.11C657.431 1138.11 659.242 1138.6 660.563 1139.58C661.893 1140.56 662.715 1141.88 663.031 1143.55ZM667.268 1158V1138.36H671.896V1158H667.268ZM669.595 1135.58C668.862 1135.58 668.232 1135.33 667.703 1134.85C667.175 1134.35 666.911 1133.76 666.911 1133.07C666.911 1132.37 667.175 1131.78 667.703 1131.29C668.232 1130.8 668.862 1130.55 669.595 1130.55C670.337 1130.55 670.967 1130.8 671.487 1131.29C672.016 1131.78 672.28 1132.37 672.28 1133.07C672.28 1133.76 672.016 1134.35 671.487 1134.85C670.967 1135.33 670.337 1135.58 669.595 1135.58ZM676.86 1158V1131.82H681.488V1141.61H681.679C681.918 1141.13 682.255 1140.63 682.689 1140.09C683.124 1139.54 683.712 1139.08 684.453 1138.7C685.195 1138.3 686.141 1138.11 687.292 1138.11C688.809 1138.11 690.176 1138.5 691.395 1139.27C692.623 1140.04 693.594 1141.18 694.31 1142.68C695.034 1144.18 695.397 1146.03 695.397 1148.21C695.397 1150.36 695.043 1152.2 694.336 1153.7C693.628 1155.21 692.665 1156.36 691.446 1157.16C690.228 1157.95 688.847 1158.35 687.304 1158.35C686.179 1158.35 685.246 1158.16 684.505 1157.78C683.763 1157.41 683.167 1156.96 682.715 1156.43C682.272 1155.89 681.926 1155.38 681.679 1154.91H681.411V1158H676.86ZM681.398 1148.18C681.398 1149.45 681.577 1150.56 681.935 1151.52C682.301 1152.47 682.826 1153.22 683.507 1153.76C684.198 1154.28 685.033 1154.55 686.013 1154.55C687.036 1154.55 687.892 1154.28 688.583 1153.73C689.273 1153.18 689.793 1152.42 690.142 1151.47C690.5 1150.5 690.679 1149.41 690.679 1148.18C690.679 1146.96 690.505 1145.88 690.155 1144.93C689.806 1143.99 689.286 1143.25 688.596 1142.71C687.905 1142.17 687.044 1141.9 686.013 1141.9C685.025 1141.9 684.185 1142.16 683.495 1142.68C682.804 1143.2 682.28 1143.93 681.922 1144.87C681.573 1145.81 681.398 1146.91 681.398 1148.18ZM699.331 1158V1138.36H703.959V1158H699.331ZM701.658 1135.58C700.925 1135.58 700.294 1135.33 699.766 1134.85C699.237 1134.35 698.973 1133.76 698.973 1133.07C698.973 1132.37 699.237 1131.78 699.766 1131.29C700.294 1130.8 700.925 1130.55 701.658 1130.55C702.399 1130.55 703.03 1130.8 703.55 1131.29C704.078 1131.78 704.342 1132.37 704.342 1133.07C704.342 1133.76 704.078 1134.35 703.55 1134.85C703.03 1135.33 702.399 1135.58 701.658 1135.58ZM713.346 1131.82V1158H708.718V1131.82H713.346ZM718.104 1158V1138.36H722.732V1158H718.104ZM720.431 1135.58C719.698 1135.58 719.067 1135.33 718.539 1134.85C718.011 1134.35 717.746 1133.76 717.746 1133.07C717.746 1132.37 718.011 1131.78 718.539 1131.29C719.067 1130.8 719.698 1130.55 720.431 1130.55C721.173 1130.55 721.803 1130.8 722.323 1131.29C722.852 1131.78 723.116 1132.37 723.116 1133.07C723.116 1133.76 722.852 1134.35 722.323 1134.85C721.803 1135.33 721.173 1135.58 720.431 1135.58ZM737.297 1138.36V1141.94H726.008V1138.36H737.297ZM728.795 1133.66H733.423V1152.09C733.423 1152.72 733.517 1153.19 733.704 1153.53C733.9 1153.85 734.156 1154.07 734.471 1154.19C734.787 1154.31 735.136 1154.37 735.52 1154.37C735.809 1154.37 736.074 1154.35 736.312 1154.31C736.559 1154.26 736.747 1154.22 736.875 1154.19L737.654 1157.81C737.407 1157.89 737.054 1157.99 736.593 1158.09C736.142 1158.19 735.588 1158.25 734.931 1158.27C733.772 1158.3 732.728 1158.13 731.799 1157.74C730.87 1157.35 730.133 1156.75 729.588 1155.93C729.051 1155.11 728.787 1154.09 728.795 1152.86V1133.66ZM744.043 1165.36C743.413 1165.36 742.829 1165.31 742.292 1165.21C741.763 1165.12 741.342 1165.01 741.026 1164.88L742.1 1161.27C742.773 1161.47 743.374 1161.56 743.903 1161.55C744.431 1161.55 744.896 1161.38 745.296 1161.06C745.705 1160.74 746.05 1160.21 746.332 1159.47L746.728 1158.41L739.607 1138.36H744.516L749.042 1153.19H749.246L753.785 1138.36H758.707L750.844 1160.38C750.478 1161.42 749.992 1162.31 749.387 1163.05C748.782 1163.8 748.04 1164.37 747.163 1164.76C746.293 1165.16 745.254 1165.36 744.043 1165.36Z" fill="#666C77"/>
<path d="M670.414 0.585786C669.633 -0.195262 668.367 -0.195262 667.586 0.585786L654.858 13.3137C654.077 14.0948 654.077 15.3611 654.858 16.1421C655.639 16.9232 656.905 16.9232 657.686 16.1421L669 4.82843L680.314 16.1421C681.095 16.9232 682.361 16.9232 683.142 16.1421C683.923 15.3611 683.923 14.0948 683.142 13.3137L670.414 0.585786ZM671 1112L671 2L667 2L667 1112L671 1112Z" fill="#3C3F45"/>
<path d="M1225.41 558.414C1226.2 557.633 1226.2 556.367 1225.41 555.586L1212.69 542.858C1211.91 542.077 1210.64 542.077 1209.86 542.858C1209.08 543.639 1209.08 544.905 1209.86 545.686L1221.17 557L1209.86 568.314C1209.08 569.095 1209.08 570.361 1209.86 571.142C1210.64 571.923 1211.91 571.923 1212.69 571.142L1225.41 558.414ZM114 559L1224 559V555L114 555V559Z" fill="#3C3F45"/>
<rect x="661" y="1109" width="16" height="5" fill="#3C3F45"/>
<rect x="661" y="831" width="16" height="5" fill="#3C3F45"/>
<rect x="944.5" y="564.5" width="16" height="5" transform="rotate(-90 944.5 564.5)" fill="#3C3F45"/>
<rect x="661" y="275" width="16" height="5" fill="#3C3F45"/>
<rect x="388.5" y="564.5" width="16" height="5" transform="rotate(-90 388.5 564.5)" fill="#3C3F45"/>
<rect x="114" y="564.5" width="16" height="5" transform="rotate(-90 114 564.5)" fill="#3C3F45"/>
</svg>
